<svg width="1024" height="1024" xmlns="http://www.w3.org/2000/svg" version="1.1">

 <g>
  <title>Layer 1</title>
  <g stroke="null" id="svg_133">
   <path stroke="null" id="svg_1" fill="#020202" d="m458.01227,158.2736c1.80359,0.02014 1.80359,0.02014 3.64362,0.04067c1.37211,0.0259 1.37211,0.0259 2.77194,0.05231c2.12122,15.37882 2.12122,15.37882 1.48767,20.82734c-4.91934,4.65781 -11.12632,6.83933 -17.29413,9.3909c-22.03965,9.42684 -46.51981,23.82108 -62.20308,42.39851c-2.57481,3.03783 -5.13495,6.0535 -7.85674,8.96087c-6.76579,7.28859 -11.85869,15.21323 -16.92803,23.75618c-1.65182,2.77451 -3.34823,5.52499 -5.14871,8.20541c-11.67735,17.65843 -17.79391,39.32337 -23.62253,59.49507c-0.36725,1.26819 -0.73448,2.5364 -1.11285,3.84302c-1.56089,5.61825 -2.85912,11.06119 -3.49544,16.86229c-0.69153,5.60781 -0.69153,5.60781 -2.17338,9.82674c-2.14162,6.74983 -2.52299,13.47737 -3.07413,20.51353c-0.18374,2.20883 -0.18374,2.20883 -0.37119,4.46227c-0.24017,2.89197 -0.47663,5.78424 -0.70896,8.67685c-0.24552,2.95296 -0.53086,5.90262 -0.83174,8.85046c-2.23088,21.86887 -1.14803,43.49241 1.07508,65.31788c0.18746,1.85334 0.37491,3.70667 0.56805,5.61617c0.95233,8.72594 2.16584,16.80338 4.82474,25.15995c0.51258,2.87426 0.97958,5.75712 1.39469,8.64707c1.34701,8.33907 3.40494,16.06974 6.04365,24.08161c0.63628,2.03169 1.27154,4.06371 1.90607,6.09595c11.25347,35.50917 29.43892,75.64131 59.55317,99.06352c1.31938,1.13528 2.63875,2.27055 3.99811,3.44023c0,0.98186 0,1.96372 0,2.97533c1.20239,0.53215 1.20239,0.53215 2.42908,1.07508c6.09765,3.2903 11.34456,7.78993 16.806,12.02917c4.38255,3.12801 8.63,5.43809 13.4936,7.72309c1.40375,0.71914 2.80751,1.43828 4.25379,2.17919c22.14193,12.00632 22.14193,12.00632 46.32689,17.16048c1.4848,-34.31807 1.74628,-68.60701 1.82953,-102.95287c0.02351,-9.63694 0.05912,-19.27381 0.09653,-28.91071c0.10457,-27.36884 0.19439,-54.73769 0.27093,-82.10661c0.04259,-15.19691 0.09546,-30.39374 0.15866,-45.59057c0.03271,-7.98089 0.0605,-15.9617 0.07505,-23.94263c0.05857,-30.85576 0.34506,-61.65633 1.88156,-92.47868c0.05748,-1.20195 0.11497,-2.40391 0.17421,-3.6423c0.63846,-12.98481 1.62587,-25.68011 4.43953,-38.41008c0.34434,-1.60545 0.34434,-1.60545 0.69562,-3.24332c2.62969,-11.82361 5.63313,-23.14218 11.20572,-33.94836c0.67119,-1.41526 1.34238,-2.83052 2.03392,-4.28866c14.8706,-28.38935 39.91792,-47.26253 69.3741,-58.19336c1.78633,-0.77954 1.78633,-0.77954 3.60875,-1.57483c37.8202,-13.83106 85.51155,-2.32112 120.52429,13.64469c60.78249,29.20224 101.61763,86.75617 124.48171,148.63306c21.81945,65.79666 17.73516,141.86892 -4.63734,206.75086c-0.32337,0.961 -0.64675,1.92201 -0.97991,2.91214c-9.20503,27.12114 -23.5149,51.20354 -40.10527,74.45237c-2.10362,2.88674 -2.10362,2.88674 -3.54483,5.94485c-0.98186,0 -1.96372,0 -2.97533,0c-0.3356,0.80736 -0.67119,1.6147 -1.01695,2.44651c-2.55415,4.57016 -5.92942,8.17394 -9.48969,11.96526c-1.09723,1.17866 -1.09723,1.17866 -2.21661,2.38115c-2.1951,2.34663 -4.40286,4.68053 -6.61641,7.00975c-1.74893,1.84386 -1.74893,1.84386 -3.53321,3.72498c-17.95226,18.43312 -39.18996,32.0837 -61.92414,43.88036c-1.35006,0.73064 -2.70012,1.46129 -4.09108,2.21407c-12.55787,6.60313 -25.58172,11.31311 -39.05126,15.63794c-2.01574,0.6483 -2.01574,0.6483 -4.07219,1.3097c-23.8576,7.56016 -47.80346,12.99532 -72.68213,15.85658c-4.8122,0.13011 -4.8122,0.13011 -6.55503,2.17339c-0.1589,2.98985 -0.21193,5.98535 -0.22537,8.9794c-0.01241,1.95262 -0.02483,3.90523 -0.03761,5.91703c-0.00641,2.18424 -0.0127,4.36848 -0.01886,6.55271c-0.01181,2.28424 -0.02429,4.56848 -0.03739,6.85272c-0.02693,4.92983 -0.04924,9.85965 -0.06811,14.78951c-0.03001,7.78699 -0.07116,15.57388 -0.11407,23.36079c-0.08951,16.52859 -0.16659,33.05723 -0.24243,49.58588c-0.08187,17.84085 -0.1658,35.68168 -0.26414,53.52245c-0.04228,7.7492 -0.07734,15.49838 -0.10699,23.24763c-0.01986,4.81125 -0.04578,9.62245 -0.07336,14.43367c-0.01159,2.23998 -0.0206,4.47998 -0.02693,6.71999c-0.00894,3.04499 -0.0277,6.08996 -0.04705,9.1349c-0.00766,1.70811 -0.01534,3.41622 -0.02324,5.17608c-0.20213,3.80331 -0.20213,3.80331 -1.6898,5.29098c-2.22957,0.14625 -4.46596,0.19039 -6.70032,0.19249c-2.13709,0.00704 -2.13709,0.00704 -4.31736,0.01422c-1.54961,-0.00302 -3.09923,-0.00603 -4.69581,-0.00913c-1.57934,0.00143 -3.15869,0.00286 -4.78588,0.00431c-3.34664,0.00101 -6.6933,-0.00174 -10.03994,-0.00794c-5.14249,-0.00796 -10.28479,-0.00007 -15.42729,0.00945c-3.24265,-0.00098 -6.48529,-0.00289 -9.72794,-0.00582c-1.54961,0.00302 -3.09924,0.00603 -4.69581,0.00913c-1.42474,-0.0047 -2.84946,-0.00939 -4.31736,-0.01422c-1.26077,-0.00118 -2.52154,-0.00237 -3.82051,-0.00359c-2.87981,-0.1889 -2.87981,-0.1889 -4.36748,-1.67657c-0.14393,-2.9936 -0.1813,-5.99234 -0.17889,-8.98941c-0.00308,-2.93215 -0.00308,-2.93215 -0.0062,-5.92353c0.00527,-2.1866 0.01067,-4.37321 0.0162,-6.55981c0.00043,-2.28665 0.00019,-4.57331 -0.00065,-6.85996c-0.00043,-6.22703 0.00835,-12.45402 0.01871,-18.68104c0.00927,-6.50047 0.01016,-13.00093 0.01193,-19.5014c0.00463,-12.31823 0.01686,-24.63642 0.03176,-36.95463c0.0166,-14.02018 0.0248,-28.04035 0.03228,-42.06053c0.01556,-28.8486 0.04174,-57.69718 0.07486,-86.54576c-4.02585,-2.01292 -7.69503,-2.10561 -12.18027,-2.60342c-35.53922,-4.4424 -72.02807,-13.45625 -103.85776,-30.12526c-1.4402,-0.74981 -2.88038,-1.49964 -4.36421,-2.27217c-28.17883,-15.06867 -28.17883,-15.06867 -38.77814,-23.01817c0,-0.98186 0,-1.96372 0,-2.97533c-1.02789,-0.32601 -2.05576,-0.65201 -3.1148,-0.9879c-5.50246,-2.52936 -9.47817,-6.00272 -13.99337,-9.98364c-1.65737,-1.43819 -3.31549,-2.8755 -4.97439,-4.31191c-0.79525,-0.69373 -1.59049,-1.38744 -2.40983,-2.10219c-2.04391,-1.74737 -4.15154,-3.41952 -6.26629,-5.08044c-3.33896,-2.7273 -6.11895,-5.52518 -8.94344,-8.77492c-0.86489,-0.98186 -1.72976,-1.96372 -2.62085,-2.97533c-2.22418,-2.86848 -3.78821,-5.62853 -5.28238,-8.926c-0.98186,0 -1.96372,0 -2.97533,0c-2.52787,-3.05669 -2.52787,-3.05669 -5.48577,-7.25238c-1.43539,-2.01933 -1.43539,-2.01933 -2.89979,-4.07947c-0.53599,-0.77031 -1.07198,-1.54063 -1.62423,-2.33428c-1.41421,-2.01732 -2.84917,-4.02015 -4.29446,-6.01532c-6.41617,-8.94426 -11.92347,-18.13524 -17.12271,-27.83092c-0.74215,-1.35677 -1.48429,-2.71353 -2.24894,-4.11142c-7.53018,-13.91021 -14.11121,-27.80337 -18.48542,-43.02903c-0.55715,-1.90067 -0.55715,-1.90067 -1.12555,-3.83974c-2.4256,-8.40417 -4.65445,-16.84756 -6.6847,-25.35572c-0.35543,-1.48609 -0.35543,-1.48609 -0.71805,-3.00222c-1.14977,-5.02101 -2.01292,-9.99422 -2.60014,-15.10547c-0.09191,-5.03846 -0.09191,-5.03846 -2.16758,-6.81073c-0.60346,-5.77274 -0.715,-11.58858 -0.92979,-17.38711c-0.09889,-2.65217 -0.09889,-2.65217 -0.19976,-5.35792c-0.43202,-14.01436 -0.2772,-27.95914 0.19976,-41.96849c0.096,-2.89866 0.096,-2.89866 0.19395,-5.85587c0.53269,-13.61818 0.53269,-13.61818 2.22351,-18.69063c0.63085,-3.07688 1.25916,-6.15433 1.86903,-9.23545c2.55281,-12.82214 5.73253,-25.18411 9.81148,-37.60281c1.69481,-5.18818 3.21498,-10.38828 4.68383,-15.64376c0.98186,0 1.96372,0 2.97533,0c0.12273,-1.22733 0.24547,-2.45465 0.37192,-3.71917c1.37258,-6.40537 3.94156,-11.39492 7.06642,-17.10817c0.89928,-1.66354 0.89928,-1.66354 1.81672,-3.36068c8.21622,-14.99915 17.36997,-29.05014 27.84364,-42.57104c0.70355,-0.91319 1.40711,-1.82636 2.13199,-2.76722c1.72584,-2.17565 3.55416,-4.26931 5.39932,-6.34474c0.98186,0 1.96372,0 2.97533,0c0.33752,-0.81502 0.67503,-1.63004 1.02277,-2.46977c9.85069,-17.56121 30.42922,-29.64387 46.58258,-40.67258c1.64233,-1.1454 1.64233,-1.1454 3.31782,-2.31395c7.6157,-5.22858 15.36094,-9.52104 23.73912,-13.39954c1.22325,-0.57268 2.4465,-1.14534 3.70682,-1.73536c10.37135,-4.77949 20.86267,-8.74714 31.71825,-12.30449c1.21391,-0.42189 2.4278,-0.84379 3.6785,-1.27846c3.22264,-1.11401 6.45698,-2.16453 9.71051,-3.18454c1.14103,-0.36436 2.28205,-0.72872 3.45767,-1.10413c10.3771,-3.08294 20.87007,-4.76042 31.55989,-6.3313c1.17771,-0.17355 2.35542,-0.3471 3.56881,-0.52591c1.58498,-0.22617 1.58498,-0.22617 3.20197,-0.45691c11.88221,-2.12312 11.88221,-2.12312 14.27812,-2.0884zm120.96593,74.47634c0,0.98186 0,1.96372 0,2.97533c-1.47279,0.49093 -2.94558,0.98186 -4.463,1.48767c-18.74804,28.31736 -15.09795,65.29062 -15.06916,97.6594c-0.00202,3.82625 -0.00467,7.65252 -0.0079,11.47877c-0.00658,9.2603 -0.00521,18.52056 -0.00088,27.78086c0.00338,7.52148 0.00381,15.04295 0.00219,22.56443c-0.00022,1.07417 -0.00045,2.14834 -0.00068,3.25506c-0.00048,2.18251 -0.00095,4.36502 -0.00144,6.54752c-0.00424,20.39778 0.00061,40.79555 0.00863,61.19333c0.00666,17.51014 0.00547,35.02028 -0.00137,52.53042c-0.00796,20.36174 -0.0111,40.72346 -0.00653,61.0852c0.00048,2.16769 0.00094,4.33539 0.0014,6.50308c0.00024,1.06645 0.00046,2.13291 0.0007,3.23169c0.00129,7.52492 -0.00088,15.04984 -0.00439,22.57474c-0.00458,10.10321 -0.00134,20.20639 0.00729,30.3096c0.00198,3.71775 0.00138,7.43552 -0.00187,11.15329c-0.00403,5.05038 0.00098,10.10066 0.00845,15.15103c-0.00332,1.49124 -0.00665,2.98246 -0.01006,4.51888c0.00387,1.34173 0.00775,2.68347 0.01175,4.06587c0.00024,1.16684 0.00048,2.33369 0.00073,3.53589c-0.10183,2.68561 -0.10183,2.68561 1.67415,4.13643c8.34705,0.54929 15.24616,-0.92802 23.15182,-3.25427c1.17435,-0.33883 2.3487,-0.67766 3.55863,-1.02677c36.82274,-10.79236 74.54182,-28.09163 99.74125,-58.20097c0,-0.98186 0,-1.96372 0,-2.97533c0.98186,0 1.96372,0 2.97533,0c2.27418,-2.93097 4.36153,-5.84579 6.41556,-8.926c0.60383,-0.89497 1.20767,-1.78993 1.8298,-2.71202c1.19533,-1.77815 2.38579,-3.55957 3.57098,-5.34449c1.22353,-1.83388 2.47622,-3.64831 3.74023,-5.45453c15.461,-22.9071 23.64495,-51.92964 29.07343,-78.72432c0.21885,-1.05904 0.43772,-2.1181 0.6632,-3.20924c11.08717,-55.37334 6.88525,-116.99423 -9.5892,-170.84781c-0.50627,-1.65497 -1.01254,-3.30994 -1.53416,-5.01506c-1.391,-4.31322 -2.87209,-8.57645 -4.41651,-12.83695c-0.81981,-2.30123 -0.81981,-2.30123 -1.65619,-4.64896c-4.54378,-12.31411 -10.14828,-23.89354 -16.19582,-35.51805c-0.98186,0 -1.96372,0 -2.97533,0c-0.16876,-0.85721 -0.33752,-1.71442 -0.51139,-2.5976c-5.65992,-19.43912 -27.31352,-40.29364 -44.11863,-50.95842c-1.47279,0 -2.94558,0 -4.463,0c0,-0.98186 0,-1.96372 0,-2.97533c-23.53753,-9.76747 -50.11543,-17.85968 -71.40802,1.48767z"/>
   <path stroke="null" id="svg_2" fill="#050505" d="m617.02922,34.073c4.61889,1.04742 9.27041,1.89326 13.92436,2.76977c24.02231,5.23906 47.69662,13.06401 70.01333,23.33778c2.44184,0.97749 4.89005,1.93922 7.34536,2.88236c10.15995,4.02407 19.99675,8.76133 29.84632,13.48198c1.74127,0.83036 3.48254,1.66071 5.27658,2.51624c28.56752,13.92828 55.50308,31.53012 80.40375,51.24317c3.34315,2.77392 3.34315,2.77392 6.55503,4.25961c0,0.98186 0,1.96372 0,2.97533c0.77859,0.32217 1.55717,0.64434 2.35935,0.97628c5.00244,2.78453 9.15158,6.4362 13.44711,10.18122c0.95981,0.83455 1.91961,1.6691 2.90851,2.52896c8.17388,7.21435 15.97177,14.77865 23.68354,22.48244c1.10196,1.10075 2.20392,2.20151 3.33926,3.33562c6.86061,6.93036 13.37762,14.08391 19.71958,21.48983c0.7545,0.86044 1.50899,1.72089 2.28635,2.6074c5.15198,5.9674 5.15198,5.9674 5.15198,9.29393c0.98186,0 1.96372,0 2.97533,0c2.9188,3.53848 5.66282,7.08848 8.36813,10.78559c0.80627,1.0914 1.61254,2.18281 2.44326,3.30729c6.6089,9.00241 12.95545,18.13161 18.94196,27.5618c0.61103,0.96148 1.22206,1.92296 1.8516,2.91358c16.54839,26.17897 30.721,53.35335 42.77842,81.88345c0.7044,1.65844 1.40879,3.31689 2.13453,5.02559c5.64522,13.54075 9.92607,27.22428 13.76491,41.37103c0.56549,2.041 1.13207,4.0817 1.69978,6.12209c1.60491,5.79201 3.16793,11.59412 4.71579,17.40164c0.42285,1.58474 0.84571,3.16946 1.28137,4.80222c2.68,10.35038 4.67447,20.71576 6.34292,31.27371c0.25122,1.49389 0.50244,2.98777 0.76127,4.52693c3.63616,22.70445 3.75733,45.42645 3.70972,68.35967c-0.00794,4.54262 -0.00004,9.08502 0.00945,13.62763c0.01073,24.14286 -0.01028,48.37056 -4.29448,72.20126c-0.259,1.49005 -0.51801,2.98009 -0.78486,4.51529c-3.90807,21.75161 -9.55957,43.00139 -16.45842,63.98495c-1.02558,3.13828 -2.02088,6.28523 -3.01455,9.43376c-8.60724,26.94888 -19.95189,52.15428 -33.6701,76.87636c-0.65825,1.18969 -1.3165,2.37937 -1.99469,3.60512c-14.08806,25.29656 -30.36082,48.472 -48.16758,71.27508c-1.55367,2.02027 -3.0418,4.09082 -4.50949,6.1744c-0.61366,0.74407 -1.22733,1.48813 -1.85958,2.25475c-0.98186,0 -1.96372,0 -2.97533,0c-0.38833,0.86655 -0.77667,1.73312 -1.17676,2.62593c-1.9113,3.53312 -4.01033,6.00689 -6.77296,8.91511c-0.98857,1.04634 -1.97714,2.09269 -2.99567,3.17074c-1.05186,1.09763 -2.10371,2.19528 -3.18745,3.32619c-1.6123,1.69536 -1.6123,1.69536 -3.25717,3.42497c-11.61556,12.1787 -23.2221,24.28182 -36.16601,35.06842c-0.8246,0.68845 -1.64921,1.3769 -2.4988,2.08622c-19.29112,16.04924 -39.22605,30.62616 -60.48442,43.95301c-2.31084,1.46276 -4.59604,2.96581 -6.879,4.47172c-15.56137,10.0475 -32.36093,17.61432 -49.15114,25.36008c-2.15164,0.99528 -2.15164,0.99528 -4.34677,2.01067c-7.27907,3.34203 -14.55093,6.53142 -22.05932,9.33279c-4.84744,1.81475 -9.60929,3.67131 -14.34203,5.77051c-5.66545,2.34834 -11.35902,4.08676 -17.27089,5.66593c-1.15385,0.31162 -2.3077,0.62324 -3.49652,0.94431c-2.4954,0.67182 -4.9917,1.34024 -7.48881,2.0056c-3.91853,1.05551 -7.82444,2.15047 -11.73064,3.25064c-31.39329,8.69809 -63.31238,14.85764 -95.93491,15.55295c-5.5537,0.16074 -11.0912,0.5582 -16.63384,0.93342c-51.48152,3.46049 -103.77804,-3.27818 -153.32269,-17.20115c-1.24745,-0.3471 -2.49492,-0.6942 -3.78018,-1.05183c-15.34288,-4.31123 -30.25546,-9.17037 -44.94528,-15.39606c-4.05037,-1.7013 -8.11866,-3.35634 -12.18753,-5.01287c-3.18874,-1.30674 -6.37714,-2.61426 -9.56524,-3.92256c-1.50394,-0.61223 -3.0079,-1.22445 -4.55742,-1.85523c-9.09195,-3.76457 -17.60618,-8.0205 -26.12571,-12.92847c-2.01838,-1.0901 -4.04065,-2.17302 -6.06689,-3.24847c-22.40355,-12.04331 -43.64417,-25.9369 -63.85347,-41.38154c-1.76619,-1.32609 -1.76619,-1.32609 -3.56807,-2.67896c-8.64272,-6.61015 -16.67734,-13.77795 -24.69761,-21.12371c-2.63142,-2.38977 -5.26578,-4.7763 -7.90323,-7.1594c-1.1602,-1.05282 -2.3204,-2.10563 -3.51577,-3.19035c-2.37752,-2.08983 -4.81974,-4.10757 -7.31049,-6.06108c-3.23042,-2.63879 -5.76629,-5.21759 -8.42043,-8.41462c-3.77436,-4.43326 -7.69958,-8.52302 -11.90134,-12.55219c-7.86463,-7.78478 -14.51938,-16.35581 -21.20143,-25.15016c-2.38071,-3.1285 -4.78337,-6.23945 -7.18628,-9.35094c-1.63423,-2.13561 -3.2672,-4.27216 -4.89884,-6.40975c-0.77534,-1.00404 -1.55068,-2.00807 -2.34953,-3.04253c-0.71662,-0.94818 -1.43325,-1.89636 -2.17158,-2.87328c-0.63595,-0.83347 -1.27191,-1.66695 -1.92714,-2.52569c-1.70961,-2.79427 -2.40226,-5.28241 -3.03563,-8.48071c-0.98186,0 -1.96372,0 -2.97533,0c-2.26636,-3.13224 -2.26636,-3.13224 -5.02088,-7.71727c-0.50603,-0.8408 -1.01206,-1.68158 -1.53343,-2.54785c-1.80088,-3.01428 -3.57656,-6.04231 -5.34703,-9.07455c-0.71241,-1.21919 -1.42484,-2.43836 -2.15886,-3.69447c-13.62772,-23.41017 -25.4364,-46.86604 -35.77665,-71.89761c-0.58105,-1.38938 -1.16212,-2.77875 -1.76079,-4.21022c-3.70282,-8.98276 -6.72961,-17.97289 -9.39672,-27.30973c-0.57721,-1.82181 -1.15444,-3.64362 -1.74917,-5.52064c-5.78438,-18.6452 -9.74798,-37.64684 -13.65922,-56.76126c-0.59318,-2.89356 -1.19739,-5.7849 -1.8189,-8.67249c-13.63432,-64.47786 -7.44076,-139.84351 10.41294,-202.6863c0.77677,-2.75693 1.51154,-5.52563 2.24093,-8.29548c15.08274,-56.07852 41.75821,-112.52006 77.46911,-158.4133c1.17172,-1.56293 2.34343,-3.12586 3.55064,-4.73614c6.8073,-9.04924 13.88209,-17.63613 21.57699,-25.95863c4.11722,-4.62044 7.80079,-9.51307 11.45388,-14.50475c0.69229,-0.79392 1.38457,-1.58785 2.09783,-2.40583c0.98186,0 1.96372,0 2.97533,0c0.38929,-0.89174 0.77859,-1.78346 1.17968,-2.70221c1.90308,-3.44277 3.67385,-5.17736 6.72356,-7.61848c4.62099,-3.72795 8.74635,-7.774 12.92411,-11.99432c15.71542,-15.60274 32.50941,-28.88874 50.58068,-41.65468c1.99759,-1.43859 3.99473,-2.8778 5.99136,-4.31773c111.10874,-79.1929 258.91207,-110.63117 392.0751,-79.80883zm-218.05874,36.52122c-1.95616,0.47759 -3.91259,0.95419 -5.86931,1.42954c-47.98049,12.12467 -95.96801,32.30518 -136.62131,60.7038c-4.36955,3.03323 -8.80773,5.8469 -13.34251,8.62383c-8.65691,5.47761 -16.38124,11.87379 -24.17459,18.50286c-1.67114,1.41081 -3.34286,2.82097 -5.01506,4.23055c-3.27107,2.7601 -6.53679,5.52627 -9.79769,8.29839c-2.34055,1.98302 -4.68581,3.96185 -7.08603,5.87222c-2.17278,1.73925 -4.27643,3.56414 -6.3669,5.40151c0,0.98186 0,1.96372 0,2.97533c-2.94558,1.47279 -2.94558,1.47279 -5.95067,2.97533c0,0.98186 0,1.96372 0,2.97533c-2.94558,1.47279 -2.94558,1.47279 -5.95067,2.97533c0,0.98186 0,1.96372 0,2.97533c-2.94558,1.47279 -2.94558,1.47279 -5.95067,2.97533c0,0.98186 0,1.96372 0,2.97533c-2.20919,0.7364 -2.20919,0.7364 -4.463,1.48767c-2.20175,2.05771 -2.20175,2.05771 -4.37002,4.74194c-0.90514,1.07006 -1.8103,2.14014 -2.74289,3.24264c-1.63388,1.9388 -1.63388,1.9388 -3.30076,3.91676c-1.40762,1.61775 -2.81798,3.2331 -4.23055,4.84654c-24.11736,27.63809 -45.40635,58.70204 -61.2268,91.85183c-1.42469,2.75888 -2.85041,5.51725 -4.27704,8.27515c-15.56757,31.3784 -26.73864,64.67987 -34.4023,98.83688c-0.36711,1.55369 -0.36711,1.55369 -0.74165,3.13877c-11.02587,46.69717 -12.9451,93.57957 -8.18436,141.16494c0.1515,1.52385 0.30301,3.04769 0.45909,4.61772c2.14458,20.82032 5.77224,40.69713 11.44224,60.83963c0.53108,1.93116 1.06187,3.86242 1.59228,5.79376c1.40745,5.02585 2.86761,10.03186 4.35839,15.03358c0.4545,1.54566 0.90899,3.09133 1.37725,4.68382c2.82701,9.42334 5.90753,18.75036 9.1294,28.04486c0.36509,1.06875 0.73016,2.13751 1.10632,3.23865c2.05805,5.85229 4.52101,10.77205 7.72671,16.10102c0.73512,1.86863 1.43539,3.75117 2.10947,5.64268c2.3589,6.54026 5.45411,12.52449 8.7691,18.62489c0.5933,1.10279 1.18658,2.20559 1.79785,3.34179c1.18247,2.19572 2.36788,4.38987 3.55645,6.58227c1.38948,2.5745 2.75339,5.16277 4.11215,7.7536c4.23207,8.00784 8.91092,15.39447 14.2084,22.73923c2.67683,3.803 5.12592,7.69319 7.56617,11.65145c9.4003,14.8978 20.7182,28.41504 32.07202,41.84644c3.16709,3.80635 3.16709,3.80635 5.63686,7.28725c0.65777,0.81502 1.31554,1.63004 1.99324,2.46977c0.98186,0 1.96372,0 2.97533,0c0.30683,0.79009 0.61366,1.58017 0.92979,2.39421c2.90782,5.05563 6.83768,8.77901 10.97155,12.85438c1.21966,1.23691 1.21966,1.23691 2.46395,2.4988c3.97171,4.55594 3.97171,4.55594 9.43739,6.05528c0.7364,2.20919 0.7364,2.20919 1.48767,4.463c5.17613,5.4153 5.17613,5.4153 11.90134,7.43834c0.7364,2.20919 0.7364,2.20919 1.48767,4.463c2.83354,2.43376 5.64866,4.66864 8.64707,6.88046c0.8632,0.6495 1.72641,1.299 2.61577,1.96817c1.79756,1.35073 3.59861,2.69681 5.40297,4.03842c2.52914,1.88191 5.0471,3.77763 7.5611,5.67973c4.30812,3.2515 8.63082,6.48191 12.96478,9.69889c1.01063,0.75173 2.02126,1.50347 3.06251,2.27799c4.70479,3.4369 9.51076,6.48177 14.60935,9.29792c4.13497,2.37589 8.1401,4.94196 12.17446,7.48483c10.04781,6.25158 20.47104,11.53893 31.14803,16.64328c2.48534,1.20815 2.48534,1.20815 5.02088,2.4407c24.80569,11.84915 49.95188,23.03202 76.72673,29.54196c2.99067,0.73165 5.96627,1.50748 8.94198,2.29761c71.15778,18.70843 150.29251,23.94531 221.77355,3.73659c3.08908,-0.87228 6.18608,-1.7108 9.28557,-2.54529c6.82137,-1.84933 13.62141,-3.76859 20.41474,-5.71822c1.86725,-0.53577 1.86725,-0.53577 3.7722,-1.08234c19.99765,-5.77602 39.35707,-11.96455 57.90787,-21.5581c4.10453,-2.06586 8.21619,-4.03229 12.38949,-5.95067c25.37799,-11.69985 48.43797,-25.49451 70.6838,-42.39344c2.40173,-1.81735 4.82544,-3.60555 7.25019,-5.39206c7.87703,-5.81325 15.59797,-11.7928 23.16926,-17.99728c1.4958,-1.22541 2.99161,-2.45083 4.53274,-3.71337c1.08158,-1.01446 2.16316,-2.02893 3.27751,-3.07412c0,-0.98186 0,-1.96372 0,-2.97533c1.26856,-0.56381 1.26856,-0.56381 2.56274,-1.139c9.74117,-5.27995 17.37321,-14.1111 24.21526,-22.66367c2.47945,-2.47945 4.9589,-4.9589 7.43834,-7.43834c7.99749,-8.4757 15.48871,-17.32253 22.7799,-26.40609c0.74898,-0.9308 1.49796,-1.86161 2.26964,-2.82062c4.34564,-5.46198 8.3454,-11.02602 12.14213,-16.89097c1.21221,-1.83855 2.42484,-3.6768 3.63782,-5.51483c38.47286,-58.75726 63.78822,-121.35953 75.20854,-190.85723c0.36855,-2.13764 0.36855,-2.13764 0.74456,-4.31846c14.82669,-88.54611 -2.2833,-185.94957 -43.95737,-265.19046c-1.39805,-2.69721 -2.73882,-5.41526 -4.0613,-8.15021c-7.47783,-15.39652 -15.7074,-30.33911 -26.48164,-43.71184c-2.11528,-2.94046 -2.11528,-2.94046 -4.85817,-7.85093c-3.17464,-5.64912 -6.95562,-10.6037 -11.01803,-15.63794c-0.71649,-0.89833 -1.433,-1.79664 -2.17121,-2.72219c-1.44439,-1.80967 -2.89156,-3.61713 -4.3417,-5.4222c-1.84469,-2.30292 -3.67005,-4.62132 -5.49303,-6.94148c-5.00987,-6.36235 -10.0808,-12.26363 -15.88782,-17.92173c-2.72951,-3.16458 -5.43065,-6.34945 -8.10663,-9.55942c-0.76131,-0.77284 -1.52264,-1.54567 -2.30704,-2.34192c-0.98186,0 -1.96372,0 -2.97533,0c-0.98186,-1.96372 -1.96372,-3.92744 -2.97533,-5.95067c-0.98186,0 -1.96372,0 -2.97533,0c-0.49093,-1.47279 -0.98186,-2.94558 -1.48767,-4.463c-5.17611,-5.4153 -5.17611,-5.4153 -11.90134,-7.43834c-0.49093,-1.47279 -0.98186,-2.94558 -1.48767,-4.463c-2.20808,-2.35337 -2.20808,-2.35337 -5.02088,-4.64896c-1.06624,-0.90324 -2.13247,-1.80647 -3.23102,-2.73708c-1.20431,-0.99912 -2.40862,-1.99823 -3.64944,-3.02763c-1.35772,-1.1372 -2.71545,-2.27439 -4.11432,-3.44605c-6.86588,-5.69342 -13.71354,-10.99878 -21.17602,-15.89363c-2.91589,-2.04193 -5.82911,-4.08765 -8.74004,-6.13663c-15.34011,-10.69215 -31.20776,-20.90485 -47.79131,-29.56738c-0.91282,-0.47751 -1.82564,-0.95502 -2.76612,-1.44699c-14.11552,-7.20358 -28.51897,-13.59018 -43.35736,-19.1479c-3.88876,-1.50076 -7.65138,-3.12795 -11.43064,-4.88141c-5.77469,-2.63353 -11.61859,-4.45376 -17.71834,-6.18312c-3.26558,-0.97703 -6.36481,-2.12222 -9.52457,-3.39374c-5.4957,-2.11711 -10.9596,-3.26439 -16.74206,-4.32935c-4.43378,-0.85144 -8.8058,-1.87538 -13.19724,-2.92303c-73.33086,-17.00798 -146.87806,-16.50488 -219.98878,2.13852z"/>
  </g>
 </g>
</svg>